<svg xmlns="http://www.w3.org/2000/svg" viewBox="0 0 79.67 79.67">
  <circle fill="#1a1a1a" cx="39.83" cy="39.83" r="39.83"/>
  <path fill="rgba(76,174,80,0.72)" d="M56.57,28.71h-22.16c-3.1,0-5.61-2.51-5.61-5.61s2.51-5.61,5.61-5.61h22.16c3.1,0,5.61,2.51,5.61,5.61s-2.51,5.61-5.61,5.61Z"/>
  <path fill="rgba(76,174,80,0.72)" d="M45.26,62.18H23.1c-3.1,0-5.61-2.51-5.61-5.61s2.51-5.61,5.61-5.61h22.16c3.1,0,5.61,2.51,5.61,5.61s-2.51,5.61-5.61,5.61Z"/>
  <path fill="rgba(76,174,80,0.72)" d="M23.1,62.18c-1.44,0-2.87-.55-3.97-1.64-2.19-2.19-2.19-5.74,0-7.93L52.6,19.14c2.19-2.19,5.74-2.19,7.93,0,2.19,2.19,2.19,5.74,0,7.93L27.07,60.53c-1.1,1.1-2.53,1.64-3.97,1.64Z"/>
  <path fill="rgba(76,174,80,0.72)" d="M56.57,50.87c-3.1,0-5.61-2.51-5.61-5.61V23.1c0-3.1,2.51-5.61,5.61-5.61s5.61,2.51,5.61,5.61v22.16c0,3.1-2.51,5.61-5.61,5.61Z"/>
</svg>
