<?xml version="1.0" encoding="UTF-8"?>
<svg id="Layer_2" data-name="Layer 2" xmlns="http://www.w3.org/2000/svg" viewBox="0 0 375.99 79.67">
  <defs><style>.cls-1{fill:#fff}.cls-2,.cls-3{fill:#4cae50}.cls-3{opacity:.72}</style></defs>
  <g id="Layer_1-2" data-name="Layer 1">
    <g>
      <g>
        <circle class="cls-1" cx="39.83" cy="39.83" r="39.83"/>
        <g>
          <path class="cls-3" d="m56.57,28.71h-22.16c-3.1,0-5.61-2.51-5.61-5.61s2.51-5.61,5.61-5.61h22.16c3.1,0,5.61,2.51,5.61,5.61s-2.51,5.61-5.61,5.61Z"/>
          <path class="cls-3" d="m45.26,62.18h-22.16c-3.1,0-5.61-2.51-5.61-5.61s2.51-5.61,5.61-5.61h22.16c3.1,0,5.61,2.51,5.61,5.61s-2.51,5.61-5.61,5.61Z"/>
          <path class="cls-3" d="m23.1,62.18c-1.44,0-2.87-.55-3.97-1.64-2.19-2.19-2.19-5.74,0-7.93L52.6,19.14c2.19-2.19,5.74-2.19,7.93,0,2.19,2.19,2.19,5.74,0,7.93L27.07,60.53c-1.1,1.1-2.53,1.64-3.97,1.64Z"/>
          <path class="cls-3" d="m56.57,50.87c-3.1,0-5.61-2.51-5.61-5.61v-22.16c0-3.1,2.51-5.61,5.61-5.61s5.61,2.51,5.61,5.61v22.16c0,3.1-2.51,5.61-5.61,5.61Z"/>
        </g>
      </g>
      <path class="cls-1" d="m116.5,56.42c-2.87,0-5.42-.61-7.64-1.82-2.22-1.21-3.96-2.89-5.21-5.05-1.26-2.15-1.88-4.64-1.88-7.47v-18.84h8.88v18.64c0,1.35.22,2.5.67,3.47.45.97,1.12,1.69,2.02,2.19.9.49,1.95.74,3.16.74,1.84,0,3.27-.56,4.31-1.68,1.03-1.12,1.55-2.69,1.55-4.71v-18.64h8.81v18.84c0,2.87-.62,5.38-1.85,7.54-1.23,2.15-2.96,3.83-5.18,5.01s-4.77,1.78-7.64,1.78Z"/>
      <path class="cls-1" d="m138.17,69.34V23.25h8.82v8.55l-1.48,7.87,1.41,7.87v21.8h-8.75Zm18.03-12.92c-2.33,0-4.44-.48-6.33-1.45-1.88-.96-3.39-2.28-4.51-3.94-1.12-1.66-1.73-3.57-1.82-5.72v-11.51c.09-2.15.71-4.07,1.85-5.75,1.14-1.68,2.65-3.02,4.51-4,1.86-.99,3.96-1.48,6.29-1.48,3,0,5.7.74,8.08,2.22,2.38,1.48,4.25,3.5,5.62,6.06,1.37,2.56,2.05,5.45,2.05,8.68s-.68,6.06-2.05,8.61c-1.37,2.56-3.24,4.58-5.62,6.06-2.38,1.48-5.07,2.22-8.08,2.22Zm-1.55-8.14c1.62,0,3.05-.37,4.31-1.11s2.23-1.77,2.93-3.1c.69-1.32,1.04-2.86,1.04-4.61s-.35-3.22-1.04-4.54c-.7-1.32-1.67-2.36-2.93-3.1-1.26-.74-2.69-1.11-4.31-1.11s-2.98.37-4.24,1.11c-1.26.74-2.23,1.77-2.93,3.1-.7,1.32-1.04,2.84-1.04,4.54s.35,3.29,1.04,4.61c.7,1.32,1.66,2.35,2.89,3.1,1.23.74,2.66,1.11,4.27,1.11Z"/>
      <path class="cls-2" d="m178.72,50.7l17.23-22.41h10.63l-17.23,22.41h-10.63Zm0,5.05v-5.05l7-2.62h20.46v7.67h-27.45Zm1.21-24.83v-7.67h26.65v5.05l-7.07,2.62h-19.58Z"/>
      <path class="cls-2" d="m227.31,56.42c-3.41,0-6.44-.73-9.08-2.19-2.65-1.46-4.74-3.47-6.29-6.02s-2.32-5.47-2.32-8.75.75-6.11,2.25-8.65c1.5-2.53,3.55-4.55,6.16-6.06,2.6-1.5,5.49-2.25,8.68-2.25s5.91.71,8.31,2.12c2.4,1.41,4.28,3.34,5.65,5.79,1.37,2.45,2.05,5.22,2.05,8.31,0,.58-.03,1.18-.1,1.78-.07.61-.19,1.29-.37,2.05l-27.32.07v-6.59l23.21-.07-3.57,2.76c-.09-1.93-.44-3.54-1.04-4.84-.61-1.3-1.48-2.3-2.62-2.99-1.14-.69-2.55-1.04-4.21-1.04-1.75,0-3.27.39-4.58,1.18-1.3.79-2.3,1.88-2.99,3.3-.7,1.41-1.04,3.08-1.04,5.01s.37,3.69,1.11,5.15c.74,1.46,1.8,2.58,3.2,3.36,1.39.79,3.01,1.18,4.85,1.18,1.66,0,3.16-.28,4.51-.84,1.35-.56,2.51-1.4,3.5-2.52l5.18,5.18c-1.57,1.84-3.49,3.23-5.75,4.17-2.27.94-4.72,1.41-7.37,1.41Z"/>
      <path class="cls-2" d="m248.16,55.75V23.25h8.82v32.5h-8.82Zm21.87,0v-18.64c0-1.93-.61-3.5-1.82-4.71-1.21-1.21-2.78-1.82-4.71-1.82-1.26,0-2.38.27-3.36.81-.99.54-1.76,1.3-2.32,2.29-.56.99-.84,2.13-.84,3.43l-3.43-1.75c0-2.56.55-4.79,1.65-6.7,1.1-1.91,2.62-3.4,4.58-4.47,1.95-1.08,4.16-1.61,6.63-1.61s4.51.59,6.39,1.78c1.88,1.19,3.36,2.74,4.44,4.64,1.08,1.91,1.62,3.96,1.62,6.16v20.59h-8.81Z"/>
      <path class="cls-1" d="m295.12,56.29c-1.61,0-2.93-.54-3.95-1.61-1.03-1.07-1.54-2.39-1.54-3.95s.51-2.88,1.54-3.95c1.03-1.07,2.34-1.61,3.95-1.61s2.86.54,3.89,1.61c1.03,1.07,1.54,2.39,1.54,3.95s-.51,2.88-1.54,3.95-2.32,1.61-3.89,1.61Z"/>
      <path class="cls-1" d="m324.87,56.29c-3.31,0-6.28-.74-8.91-2.21-2.64-1.47-4.71-3.48-6.23-6.03-1.52-2.55-2.28-5.4-2.28-8.58s.76-6.1,2.28-8.64,3.61-4.57,6.26-6.06c2.66-1.5,5.62-2.24,8.88-2.24,2.55,0,4.89.47,7.04,1.41,2.14.94,4,2.28,5.56,4.02l-5.63,5.69c-.85-.94-1.87-1.65-3.05-2.14-1.18-.49-2.49-.74-3.92-.74-1.61,0-3.05.37-4.32,1.11-1.27.74-2.28,1.74-3.02,3.02-.74,1.27-1.11,2.78-1.11,4.52s.37,3.21,1.11,4.52c.74,1.32,1.74,2.34,3.02,3.08,1.27.74,2.71,1.11,4.32,1.11,1.47,0,2.8-.26,3.99-.77,1.18-.51,2.2-1.26,3.05-2.24l5.69,5.69c-1.65,1.79-3.55,3.15-5.69,4.09-2.14.94-4.49,1.41-7.04,1.41Z"/>
      <path class="cls-1" d="m358.71,56.29c-3.26,0-6.2-.75-8.81-2.24-2.61-1.5-4.69-3.53-6.23-6.1-1.54-2.57-2.31-5.44-2.31-8.61s.76-6.02,2.28-8.54c1.52-2.52,3.6-4.53,6.23-6.03,2.63-1.5,5.56-2.24,8.78-2.24s6.26.75,8.88,2.24c2.61,1.5,4.68,3.51,6.2,6.03,1.52,2.52,2.28,5.37,2.28,8.54s-.76,6.04-2.28,8.61c-1.52,2.57-3.58,4.6-6.2,6.1-2.61,1.5-5.55,2.24-8.81,2.24Zm-.07-8.17c1.65,0,3.12-.37,4.39-1.11,1.27-.74,2.26-1.76,2.95-3.08.69-1.32,1.04-2.82,1.04-4.52s-.36-3.19-1.07-4.49c-.71-1.29-1.7-2.31-2.95-3.05-1.25-.74-2.7-1.11-4.35-1.11s-3.04.37-4.29,1.11c-1.25.74-2.23,1.75-2.95,3.05-.71,1.3-1.07,2.79-1.07,4.49s.36,3.21,1.07,4.52c.71,1.32,1.7,2.34,2.95,3.08,1.25.74,2.68,1.11,4.29,1.11Z"/>
    </g>
  </g>
</svg>
